<?xml version="1.0" standalone="no"?><!-- Generator: Gravit.io --><svg xmlns="http://www.w3.org/2000/svg" xmlns:xlink="http://www.w3.org/1999/xlink" style="isolation:isolate" viewBox="0 0 200 200" width="200" height="200"><defs><clipPath id="_clipPath_hRBkGU9HTAMw9rmfCyMD6YVO95rDt40e"><rect width="200" height="200"/></clipPath></defs><g clip-path="url(#_clipPath_hRBkGU9HTAMw9rmfCyMD6YVO95rDt40e)"><path d=" M 111.21532 200 L 88.62838 200 C 81.28174 200 75.26378 193.97259 75.26378 186.61448 L 75.26378 181.29159 C 75.26378 180.82192 75.0293 179.02154 73.15357 178.31702 C 72.91911 178.23876 72.76279 178.16047 72.6065 178.08219 C 69.40211 176.98631 66.19773 175.65557 63.22782 174.09001 C 63.07151 174.01173 62.83704 173.93347 62.68073 173.85519 C 62.13365 173.85519 60.49238 174.71625 59.55451 175.42075 L 56.27198 178.70841 C 51.03557 183.95303 42.59477 183.95303 37.35835 178.70841 L 21.2583 162.66144 C 16.02189 157.41683 16.02189 148.96281 21.2583 143.7182 L 24.22822 140.74363 C 26.49472 138.47358 25.16608 135.42074 25.16608 135.34246 C 25.00977 135.02935 24.85346 134.71625 24.7753 134.32486 C 23.83744 132.21135 22.89957 130.09786 22.19617 127.98434 C 22.11802 127.74952 21.9617 127.59295 21.88355 127.35813 C 20.78937 124.69666 17.19422 124.6184 17.03791 124.6184 L 13.36459 124.6184 C 6.01798 124.6184 0 118.591 0 111.23288 L 0 88.61058 C 0 81.25244 6.01798 75.22505 13.36459 75.22505 L 17.03791 75.22505 C 17.11606 75.22505 20.78937 75.14677 21.88355 72.48533 C 21.9617 72.25048 22.03986 72.01566 22.19617 71.85909 C 22.97772 69.7456 23.83744 67.63209 24.7753 65.51859 C 24.85346 65.20548 25.00977 64.89236 25.16608 64.57926 C 25.32239 64.10958 26.41657 61.36986 24.22822 59.17809 L 21.2583 56.20352 C 16.02189 50.95891 16.02189 42.50489 21.2583 37.26028 L 37.28019 21.21331 C 42.51661 15.96868 50.95741 15.96868 56.19382 21.21331 L 59.47635 24.50098 C 60.57054 25.28376 62.2118 26.14481 62.83704 25.98826 C 62.9152 25.90999 62.99335 25.90999 63.07151 25.90999 C 66.11957 24.4227 69.32395 23.01369 72.6065 21.91781 C 72.76279 21.83953 72.99727 21.76125 73.15357 21.68297 C 75.0293 20.97848 75.18562 19.0998 75.26378 18.63014 L 75.26378 13.38552 C 75.26378 6.02739 81.28174 0 88.62838 0 L 111.21532 0 C 118.56194 0 124.57992 6.02739 124.57992 13.38552 L 124.57992 18.70841 C 124.57992 19.17808 124.81438 20.97848 126.69011 21.68297 C 126.92459 21.76125 127.08089 21.83953 127.23721 21.91781 C 130.51972 23.09198 133.64595 24.4227 136.69403 25.90999 C 136.85033 25.98826 137.00665 26.06654 137.24111 26.14481 C 137.71004 26.14481 139.27315 25.36203 140.44549 24.57925 L 143.72803 21.29158 C 148.96443 16.04697 157.40525 16.04697 162.64165 21.29158 L 178.66354 37.33855 C 183.89997 42.58317 183.89997 51.03718 178.66354 56.2818 L 175.69364 59.25636 C 173.58343 61.44814 174.59946 64.18787 174.83392 64.73581 C 174.91208 64.97065 175.06838 65.28375 175.14654 65.51859 C 176.16257 67.63209 177.02226 69.82388 177.80382 71.93737 C 177.88198 72.17222 178.0383 72.32876 178.11646 72.56361 C 179.21063 75.22505 182.80579 75.30334 182.96209 75.30334 L 186.63541 75.30334 C 193.98202 75.30334 200.00001 81.33072 200.00001 88.68884 L 200.00001 111.31116 C 200.00001 118.66928 193.98202 124.69666 186.63541 124.69666 L 182.96209 124.69666 C 182.88393 124.69666 179.21063 124.77495 178.11646 127.43639 C 178.04407 127.6596 177.9387 127.87071 177.80382 128.06263 C 177.02226 130.17612 176.16257 132.28963 175.2247 134.40314 C 175.14654 134.71625 174.99024 135.02935 174.83392 135.42074 C 174.6776 135.89042 173.58343 138.63014 175.7718 140.82191 L 178.7417 143.79649 C 181.24268 146.30137 182.64947 149.66733 182.64947 153.26809 C 182.64947 156.86888 181.24268 160.23484 178.7417 162.73972 L 162.71981 178.78669 C 157.48338 184.03132 149.04259 184.03132 143.80616 178.78669 L 140.52365 175.49903 C 139.42947 174.71625 137.7882 173.93347 137.16294 174.01173 C 137.08481 174.09001 136.92849 174.09001 136.85033 174.1683 C 133.80227 175.65557 130.59789 176.98631 127.3935 178.16047 C 127.23721 178.23876 127.00273 178.31702 126.84643 178.3953 C 124.81438 179.17808 124.73622 181.36987 124.73622 181.36987 L 124.73622 186.69276 C 124.57992 193.97259 118.56194 200 111.21532 200 L 111.21532 200 Z  M 78.85894 167.98435 C 85.18952 171.27201 86.90895 177.6908 86.90895 181.21331 L 86.90895 186.53619 C 86.90895 187.39726 87.6905 188.18003 88.55022 188.18003 L 111.13716 188.18003 C 111.99688 188.18003 112.77843 187.39726 112.77843 186.53619 L 112.77843 181.21331 C 112.77843 177.6908 114.49784 171.19375 120.9066 167.90607 C 121.29738 167.59296 121.84448 167.35811 122.31339 167.20157 C 125.90855 166.0274 129.42555 164.54013 132.70809 162.818 C 133.64595 162.34833 134.66198 162.03523 135.67799 162.19179 C 141.77414 161.48727 147.24503 165.87084 147.94842 166.41879 C 148.10472 166.57533 148.26104 166.65362 148.3392 166.81018 L 151.8562 170.33269 C 152.48143 170.9589 153.57561 170.9589 154.20086 170.33269 L 170.22275 154.28572 C 170.61353 153.89433 170.69169 153.34637 170.69169 153.11155 C 170.69169 152.8767 170.61353 152.32877 170.22275 151.93738 L 167.25282 148.96281 C 161.7038 143.4051 161.93826 136.43835 163.34505 132.0548 C 163.42321 131.50685 163.57953 130.95889 163.81399 130.48925 C 164.98632 127.98434 166.08049 125.47944 166.94021 122.97456 C 167.09653 122.42661 167.40914 121.95694 167.72176 121.48729 C 171.31692 114.59882 178.66354 112.72016 182.80579 112.79844 L 186.47909 112.79844 C 187.3388 112.79844 188.12036 112.01566 188.12036 111.1546 L 188.12036 88.53229 C 188.12036 87.67123 187.3388 86.88845 186.47909 86.88845 L 182.72763 86.88845 C 178.66354 86.88845 171.23876 85.00979 167.72176 78.12132 C 167.40914 77.72993 167.17469 77.182 167.01837 76.71233 C 166.15801 74.13543 165.11323 71.62403 163.89215 69.19765 C 163.65769 68.64972 163.50137 68.10176 163.34505 67.55381 C 162.01642 63.24853 161.78194 56.2818 167.33098 50.72407 L 170.30091 47.74951 C 170.92614 47.12329 170.92614 46.0274 170.30091 45.40117 L 154.27902 29.35421 C 153.65377 28.72798 152.55959 28.72798 151.93436 29.35421 L 148.41736 32.87671 L 148.02658 33.2681 C 147.32316 33.81604 141.85228 38.19961 135.75615 37.4951 C 134.74014 37.57339 133.72411 37.33855 132.78625 36.79061 C 129.50371 35.0685 126.06487 33.58121 122.39155 32.40704 C 121.84448 32.25049 121.37554 32.01565 120.9066 31.70254 C 114.576 28.41488 112.85659 21.99609 112.85659 18.3953 L 112.85659 13.0724 C 112.85659 12.21136 112.07504 11.42858 111.21532 11.42858 L 88.62838 11.42858 C 87.76866 11.42858 86.98711 12.21136 86.98711 13.0724 L 86.98711 18.3953 C 86.98711 21.91781 85.26768 28.41488 78.85894 31.70254 C 78.46816 32.01565 77.92106 32.25049 77.45212 32.40704 C 73.85697 33.58121 70.33997 35.0685 67.05745 36.79061 C 66.11957 37.26028 65.10356 37.4951 64.08754 37.4951 C 57.9914 38.12133 52.52052 33.81604 51.81712 33.2681 C 51.6608 33.11155 51.50449 33.03327 51.42634 32.87671 L 47.90934 29.35421 C 47.2841 28.72798 46.18991 28.72798 45.56468 29.35421 L 29.54279 45.40117 C 28.91755 46.0274 28.91755 47.12329 29.54279 47.74951 L 32.5127 50.72407 C 38.1399 56.36008 37.82727 63.32681 36.42047 67.63209 C 36.34232 68.18004 36.18601 68.64972 35.95155 69.19765 C 34.77701 71.64517 33.73345 74.15363 32.82532 76.71233 C 32.66902 77.26028 32.35639 77.72993 32.04377 78.1996 C 28.44861 85.08807 20.86753 86.88845 16.95975 86.88845 L 13.28644 86.88845 C 12.42673 86.88845 11.64517 87.67123 11.64517 88.53229 L 11.64517 111.1546 C 11.64517 112.01566 12.42673 112.79844 13.28644 112.79844 L 17.03791 112.79844 C 21.102 112.79844 28.52677 114.6771 32.04377 121.56555 C 32.35639 121.95694 32.59086 122.50489 32.74716 122.97456 C 33.60688 125.47944 34.6229 127.98434 35.87339 130.48925 C 36.10785 131.03718 36.26416 131.58513 36.34232 132.13306 C 37.67097 136.43835 37.98358 143.4051 32.35639 148.96281 L 29.38647 151.93738 C 28.76124 152.5636 28.76124 153.65948 29.38647 154.28572 L 45.40836 170.33269 C 46.0336 170.9589 47.12779 170.9589 47.75302 170.33269 L 51.27002 166.81018 L 51.6608 166.41879 C 52.36421 165.87084 57.83509 161.48727 63.93123 162.19179 C 64.94724 162.11351 65.96326 162.34833 66.90113 162.818 C 70.18367 164.54013 73.70067 166.0274 77.29583 167.20157 C 77.99922 167.43639 78.46816 167.67124 78.85894 167.98435 L 78.85894 167.98435 Z  M 99.88277 151.62428 C 71.43416 151.62428 48.22196 128.45402 48.22196 99.88259 C 48.22196 71.38944 71.356 48.1409 99.88277 48.1409 C 128.33138 48.1409 151.54358 71.31116 151.54358 99.88259 C 151.54358 128.45402 128.40954 151.62428 99.88277 151.62428 Z  M 99.88277 59.96087 C 77.8429 59.96087 59.94529 77.8865 59.94529 99.96087 C 59.94529 122.03522 77.8429 139.96085 99.88277 139.96085 C 121.92262 139.96085 139.82025 122.03522 139.82025 99.96087 C 139.82025 77.8865 121.92262 59.96087 99.88277 59.96087 Z " fill="rgb(104,28,145)"/></g></svg>