<?xml version="1.0" standalone="no"?><!-- Generator: Gravit.io --><svg xmlns="http://www.w3.org/2000/svg" xmlns:xlink="http://www.w3.org/1999/xlink" style="isolation:isolate" viewBox="0 0 200 200" width="200" height="200"><defs><clipPath id="_clipPath_Te6G3udH6Oq9K96uiEbx4Js522bTzmiY"><rect width="200" height="200"/></clipPath></defs><g clip-path="url(#_clipPath_Te6G3udH6Oq9K96uiEbx4Js522bTzmiY)"><g id="Group"><linearGradient id="_lgradient_2" x1="50%" y1="0%" x2="49.999999999999986%" y2="104.17500000000004%"><stop offset="0%" stop-opacity="1" style="stop-color:rgb(109,199,255)"/><stop offset="100%" stop-opacity="1" style="stop-color:rgb(230,171,255)"/></linearGradient><path d=" M 153.84615 153.84615 L 184.61538 153.84615 L 184.61538 180.76923 C 184.61538 182.8934 182.8934 184.61538 180.76923 184.61538 L 153.84615 184.61538 L 153.84615 153.84615 Z " fill="url(#_lgradient_2)"/><linearGradient id="_lgradient_3" x1="50%" y1="-5.21250000000002%" x2="49.99999999999998%" y2="106.25%"><stop offset="0%" stop-opacity="1" style="stop-color:rgb(109,199,255)"/><stop offset="100%" stop-opacity="1" style="stop-color:rgb(230,171,255)"/></linearGradient><path d=" M 153.84615 115.38462 L 180.76923 115.38462 C 182.8934 115.38462 184.61538 117.1066 184.61538 119.23077 L 184.61538 146.15385 L 153.84615 146.15385 L 153.84615 115.38462 Z " fill="url(#_lgradient_3)"/><linearGradient id="_lgradient_4" x1="50%" y1="0%" x2="49.999999999999986%" y2="104.17500000000004%"><stop offset="0%" stop-opacity="1" style="stop-color:rgb(109,199,255)"/><stop offset="100%" stop-opacity="1" style="stop-color:rgb(230,171,255)"/></linearGradient><path d=" M 115.38462 153.84615 L 146.15385 153.84615 L 146.15385 184.61538 L 119.23077 184.61538 C 117.1066 184.61538 115.38462 182.8934 115.38462 180.76923 L 115.38462 153.84615 Z " fill="url(#_lgradient_4)"/><linearGradient id="_lgradient_5" x1="50%" y1="-5.21250000000002%" x2="49.99999999999998%" y2="106.25%"><stop offset="0%" stop-opacity="1" style="stop-color:rgb(109,199,255)"/><stop offset="100%" stop-opacity="1" style="stop-color:rgb(230,171,255)"/></linearGradient><path d=" M 119.23077 115.38462 L 146.15385 115.38462 L 146.15385 146.15385 L 115.38462 146.15385 L 115.38462 119.23077 C 115.38462 117.1066 117.1066 115.38462 119.23077 115.38462 Z " fill="url(#_lgradient_5)"/><linearGradient id="_lgradient_6" x1="50%" y1="-0.321153846153846%" x2="49.999999999999986%" y2="101.6173076923077%"><stop offset="0%" stop-opacity="1" style="stop-color:rgb(26,109,255)"/><stop offset="100%" stop-opacity="1" style="stop-color:rgb(200,34,255)"/></linearGradient><path d=" M 180.76923 100 L 161.53846 100 L 161.53846 19.23077 C 161.53846 8.62692 152.91154 0 142.30769 0 L 19.23077 0 C 8.62692 0 0 8.62692 0 19.23077 L 0 142.30769 C 0 152.91154 8.62692 161.53846 19.23077 161.53846 L 100 161.53846 L 100 180.76923 C 100 191.37308 108.62692 200 119.23077 200 L 180.76923 200 C 191.37308 200 200 191.37308 200 180.76923 L 200 119.23077 C 200 108.62692 191.37308 100 180.76923 100 Z  M 153.84615 100 L 123.07692 100 L 123.07692 84.61538 L 153.84615 84.61538 L 153.84615 100 Z  M 100.38847 115.38462 L 84.61538 115.38462 L 84.61538 84.61538 L 115.38462 84.61538 L 115.38462 100.38847 C 107.84027 101.94498 101.94498 107.84027 100.38847 115.38462 Z  M 46.15385 84.61538 L 76.92308 84.61538 L 76.92308 115.38462 L 46.15385 115.38462 L 46.15385 84.61538 Z  M 46.15385 46.15385 L 76.92308 46.15385 L 76.92308 76.92308 L 46.15385 76.92308 L 46.15385 46.15385 Z  M 115.38462 76.92308 L 84.61538 76.92308 L 84.61538 46.15385 L 115.38462 46.15385 L 115.38462 76.92308 Z  M 153.84615 76.92308 L 123.07692 76.92308 L 123.07692 46.15385 L 153.84615 46.15385 L 153.84615 76.92308 Z  M 138.46154 7.69231 L 142.30769 7.69231 C 148.66923 7.69231 153.84615 12.86923 153.84615 19.23077 L 153.84615 38.46154 L 123.07692 38.46154 L 123.07692 7.69231 L 138.46154 7.69231 Z  M 115.38462 7.69231 L 115.38462 38.46154 L 84.61538 38.46154 L 84.61538 7.69231 L 115.38462 7.69231 Z  M 76.92308 38.46154 L 46.15385 38.46154 L 46.15385 7.69231 L 76.92308 7.69231 L 76.92308 38.46154 Z  M 19.23077 7.69231 L 38.46154 7.69231 L 38.46154 38.46154 L 7.69231 38.46154 L 7.69231 19.23077 C 7.69231 12.86923 12.86923 7.69231 19.23077 7.69231 Z  M 7.69231 46.15385 L 38.46154 46.15385 L 38.46154 76.92308 L 7.69231 76.92308 L 7.69231 46.15385 Z  M 7.69231 84.61538 L 38.46154 84.61538 L 38.46154 115.38462 L 7.69231 115.38462 L 7.69231 84.61538 Z  M 26.92308 153.84615 L 19.23077 153.84615 C 12.86923 153.84615 7.69231 148.66923 7.69231 142.30769 L 7.69231 123.07692 L 38.46154 123.07692 L 38.46154 153.84615 L 26.92308 153.84615 Z  M 46.15385 153.84615 L 46.15385 123.07692 L 76.92308 123.07692 L 76.92308 153.84615 L 46.15385 153.84615 Z  M 84.61538 153.84615 L 84.61538 123.07692 L 100 123.07692 L 100 153.84615 L 84.61538 153.84615 Z  M 192.30769 180.76923 C 192.30769 187.13077 187.13077 192.30769 180.76923 192.30769 L 119.23077 192.30769 C 112.86923 192.30769 107.69231 187.13077 107.69231 180.76923 L 107.69231 119.23077 C 107.69231 112.86923 112.86923 107.69231 119.23077 107.69231 L 180.76923 107.69231 C 187.13077 107.69231 192.30769 112.86923 192.30769 119.23077 L 192.30769 180.76923 Z " fill="url(#_lgradient_6)"/></g></g></svg>