<?xml version="1.0" standalone="no"?><!-- Generator: Gravit.io --><svg xmlns="http://www.w3.org/2000/svg" xmlns:xlink="http://www.w3.org/1999/xlink" style="isolation:isolate" viewBox="0 0 200 200" width="200" height="200"><defs><clipPath id="_clipPath_SguXyLUMEEbDmuqEQGrh7nUMyp0Y6CTD"><rect width="200" height="200"/></clipPath></defs><g clip-path="url(#_clipPath_SguXyLUMEEbDmuqEQGrh7nUMyp0Y6CTD)"><g id="Group"><linearGradient id="_lgradient_0" x1="50%" y1="-3.2258064516129004%" x2="49.99999999999998%" y2="107.51612903225805%"><stop offset="0%" stop-opacity="1" style="stop-color:rgb(109,199,255)"/><stop offset="100%" stop-opacity="1" style="stop-color:rgb(230,171,255)"/></linearGradient><path d=" M 164.4875 100 C 167.23835 96.41227 168.7358 92.02093 168.75 87.5 C 168.75 75.99407 159.4226 66.66667 147.91667 66.66667 C 136.41073 66.66667 127.08333 75.99407 127.08333 87.5 C 127.08333 92.2125 128.70833 96.50833 131.34583 100 L 100 100 L 100 133.33333 C 103.45833 130.70833 107.79167 129.16667 112.5 129.16667 C 124 129.16667 133.33333 138.5 133.33333 150 C 133.33333 161.5 124 170.83333 112.5 170.83333 C 107.79167 170.83333 103.45833 169.29167 100 166.66667 L 100 195.83333 L 176.95833 195.83333 C 187.375 195.83333 195.83333 187.375 195.83333 176.95833 L 195.83333 100 L 164.4875 100 Z " fill="url(#_lgradient_0)"/><linearGradient id="_lgradient_1" x1="50%" y1="-2.7770833333333327%" x2="49.99999999999998%" y2="103.50833333333331%"><stop offset="0%" stop-opacity="1" style="stop-color:rgb(26,109,255)"/><stop offset="100%" stop-opacity="1" style="stop-color:rgb(200,34,255)"/></linearGradient><path d=" M 179.16667 0 L 20.83333 0 C 9.34583 0 0 9.34583 0 20.83333 L 0 179.16667 C 0 190.65417 9.34583 200 20.83333 200 L 179.16667 200 C 190.65417 200 200 190.65417 200 179.16667 L 200 20.83333 C 200 9.34583 190.65417 0 179.16667 0 Z  M 8.33333 20.83333 C 8.33333 13.94167 13.94167 8.33333 20.83333 8.33333 L 95.83333 8.33333 L 95.83333 28.54583 C 93.16156 27.5781 90.34163 27.08321 87.5 27.08333 C 79.9875 27.08333 72.94167 30.41667 68.16667 36.22917 C 63.3883 42.077 61.49269 49.76349 63.00417 57.1625 C 64.87917 66.60833 72.50417 74.3625 81.97917 76.46667 C 86.5831 77.5152 91.39115 77.22166 95.83333 75.62083 L 95.83333 95.83333 L 60.2875 95.83333 L 65.32917 102.5125 C 67.56667 105.475 68.74583 108.92917 68.74583 112.5 C 68.74583 117.50833 66.52083 122.20833 62.64583 125.39167 C 58.71667 128.61667 53.7375 129.8375 48.62083 128.82083 C 42.36667 127.57917 37.225 122.5125 35.825 116.2125 C 34.73667 111.42632 35.83795 106.40411 38.82917 102.5125 L 43.87917 95.83333 L 8.33333 95.83333 L 8.33333 20.83333 Z  M 95.83333 191.66667 L 20.83333 191.66667 C 13.94167 191.66667 8.33333 186.05833 8.33333 179.16667 L 8.33333 104.16667 L 28.54167 104.16667 C 26.94084 108.60885 26.6473 113.4169 27.69583 118.02083 C 29.8 127.49583 37.55833 135.12083 47 136.99583 C 48.68333 137.32917 50.37083 137.49583 52.04167 137.49583 C 57.83533 137.50874 63.45325 135.50696 67.93333 131.83333 C 73.73351 127.09122 77.09341 119.99197 77.08333 112.5 C 77.08333 109.63333 76.5875 106.82917 75.62083 104.16667 L 95.83333 104.16667 L 95.83333 139.7125 L 102.5125 134.66667 C 106.40411 131.67545 111.42632 130.57417 116.2125 131.6625 C 122.5125 133.0625 127.57917 138.20417 128.82083 144.45833 C 129.8375 149.57083 128.61667 154.55 125.39167 158.48333 C 119.93333 165.125 109.61667 166.5375 102.5125 161.16667 L 95.83333 156.11667 L 95.83333 191.66667 Z  M 191.66667 179.16667 C 191.66667 186.05833 186.05833 191.66667 179.16667 191.66667 L 104.16667 191.66667 L 104.16667 171.45417 C 106.83835 172.42223 109.65834 172.91713 112.5 172.91667 C 120.0125 172.91667 127.05833 169.58333 131.83333 163.77083 C 136.6117 157.923 138.50731 150.23651 136.99583 142.8375 C 135.12083 133.39167 127.49583 125.6375 118.02083 123.53333 C 113.4169 122.4848 108.60885 122.77834 104.16667 124.37917 L 104.16667 104.16667 L 139.7125 104.16667 L 134.66667 97.4875 C 131.67545 93.59589 130.57417 88.57368 131.6625 83.7875 C 133.0625 77.4875 138.20417 72.42083 144.45833 71.17917 C 149.57917 70.15417 154.55417 71.37917 158.48333 74.60833 C 162.34927 77.77161 164.58891 82.50483 164.58333 87.5 C 164.58333 91.075 163.4 94.52917 161.16667 97.4875 L 156.11667 104.16667 L 191.66667 104.16667 L 191.66667 179.16667 Z  M 171.45417 95.83333 C 172.4219 93.16156 172.91679 90.34163 172.91667 87.5 C 172.91667 79.9875 169.58333 72.94167 163.77083 68.16667 C 157.95833 63.39583 150.3375 61.51667 142.8375 63.00417 C 133.39167 64.87917 125.6375 72.50417 123.53333 81.97917 C 122.4848 86.5831 122.77834 91.39115 124.37917 95.83333 L 104.16667 95.83333 L 104.16667 60.2875 L 97.4875 65.33333 C 93.5969 68.32672 88.57367 69.42822 83.7875 68.3375 C 77.4875 66.9375 72.42083 61.79583 71.17917 55.54167 C 70.1625 50.42917 71.38333 45.45 74.60833 41.51667 C 80.0625 34.87083 90.37083 33.45833 97.4875 38.83333 L 104.16667 43.87917 L 104.16667 8.33333 L 179.16667 8.33333 C 186.05833 8.33333 191.66667 13.94167 191.66667 20.83333 L 191.66667 95.83333 L 171.45417 95.83333 Z " fill="url(#_lgradient_1)"/></g></g></svg>